<svg xmlns="http://www.w3.org/2000/svg" width="64" height="64" viewBox="0 0 64 64" fill="none" role="img" aria-label="รักษาอาการบาดเจ็บ">
<title>รักษาอาการบาดเจ็บ</title>
<g stroke-linecap="round" stroke-linejoin="round">
<ellipse cx="32" cy="58" rx="23" ry="3" fill="#554B43" stroke="none" stroke-width="2.6" opacity=".10"/>
<path d="M7 42L15 36L24 39H37Q43 39 43 44L53 36Q58 34 59 39L46 52Q43 55 37 55H22L12 58Z" fill="#DA9A85" stroke="#554B43" stroke-width="2.6" /><path d="M24 44H38" fill="none" stroke="#BB7D69" stroke-width="2.4" /><g transform="translate(32 30) scale(0.8)"><path d="M0 6C-3 3-10-1-10-7C-10-14-3-15 0-9C3-15 10-14 10-7C10-1 3 3 0 6Z" fill="#92AF92" stroke="#554B43" stroke-width="3.25" /></g><path d="M50 8Q51 13 56 14Q51 15 50 20Q49 15 44 14Q49 13 50 8Z" fill="#E0B969" stroke="none" stroke-width="2.6" /><path d="M12 16L16 20M29 6V11" fill="none" stroke="#E0B969" stroke-width="2.7" />
</g>
</svg>
